<svg xmlns="http://www.w3.org/2000/svg" width="28" height="17" viewBox="0 0 28 17"><defs><filter id="z56na" width="200%" height="200%" x="-50%" y="-50%"><feGaussianBlur in="SourceGraphic" result="FeGaussianBlur1018Out" stdDeviation="2.5 2.5"/></filter><mask id="z56nb"><path fill="#fff" d="M4.57 1.546l15.16.917c.776.047 1.337 1.202 1.254 2.58-.084 1.378-.78 2.457-1.555 2.41L4.27 6.538c-.775-.047-1.336-1.202-1.253-2.58.084-1.378.78-2.457 1.555-2.41z"/></mask></defs><g><g><path fill="#fcfcfc" d="M4.57 1.546l15.16.917c.776.047 1.337 1.202 1.254 2.58-.084 1.378-.78 2.457-1.555 2.41L4.27 6.538c-.775-.047-1.336-1.202-1.253-2.58.084-1.378.78-2.457 1.555-2.41z"/><path fill-opacity=".1" d="M-4.5 17.3V-8.3h33v25.6zM5.516 8.257c-.083 1.378.478 2.533 1.253 2.58l15.16.917c.775.046 1.471-1.033 1.555-2.411.083-1.378-.478-2.533-1.253-2.58L7.07 5.846C6.296 5.8 5.6 6.88 5.516 8.257z" filter="url(#z56na)" mask="url(&quot;#z56nb&quot;)"/></g></g></svg>