<svg xmlns="http://www.w3.org/2000/svg" width="28" height="14" viewBox="0 0 28 14"><defs><linearGradient id="vwkha" x1="14" x2="14" y1="13" y2="1" gradientUnits="userSpaceOnUse"><stop offset="0" stop-color="#cccaca"/><stop offset=".85" stop-color="#cccaca"/><stop offset=".9" stop-color="#d9d6d6"/><stop offset="1" stop-color="#e1e1e1"/></linearGradient><clipPath id="vwkhb"><path fill="#fff" d="M0 14V0h28v14zM1 3v8a2 2 0 0 0 2 2h22a2 2 0 0 0 2-2V3a2 2 0 0 0-2-2H3a2 2 0 0 0-2 2z"/></clipPath></defs><g><g><path fill="#9a9a9a" d="M3 1h22a2 2 0 0 1 2 2v8a2 2 0 0 1-2 2H3a2 2 0 0 1-2-2V3a2 2 0 0 1 2-2z"/><path fill="url(#vwkha)" d="M3 1h22a2 2 0 0 1 2 2v8a2 2 0 0 1-2 2H3a2 2 0 0 1-2-2V3a2 2 0 0 1 2-2z"/><path fill="none" stroke="#858484" stroke-linecap="round" stroke-linejoin="round" stroke-miterlimit="20" stroke-opacity=".5" stroke-width="2" d="M3 1h22a2 2 0 0 1 2 2v8a2 2 0 0 1-2 2H3a2 2 0 0 1-2-2V3a2 2 0 0 1 2-2z" clip-path="url(&quot;#vwkhb&quot;)"/></g></g></svg>